# xmcd
#
# Track frame offsets: 
#        150
#        19595
#        30245
#        43220
#
# Disc length: 736 seconds
#
# Revision: 0
# Processed by: cddbd v1.5.2PL0 Copyright (c) Steve Scherf et al.
# Submitted via: ExactAudioCopy v1.0b1
#
DISCID=2402de04
DTITLE=Cables Cause Fires - Cables Cause Fires
DYEAR=2010
DGENRE=Indie Rock
TTITLE0=Love This Torture
TTITLE1=The Talk
TTITLE2=To Be A Gentleman
TTITLE3=Two's A Laugh
EXTD=
EXTT0=
EXTT1=
EXTT2=
EXTT3=
PLAYORDER=
